{"title":"Monsters.Vs.Aliens.Mutant.Pumpkins.From.Outer.Space.2009.DVDRip.","uid":6858556,"size":253281064,"categoryP":"video","categoryS":"movies","magnet":"?xt=urn:btih:7b96117350ca6dbe8f6de8e2e1c46518986ea46e&amp;dn=Monsters.Vs.Aliens.Mutant.Pumpkins.From.Outer.Space.2009.DVDRip.&amp;tr=udp%3A%2F%2Ftracker.openbittorrent.com%3A80&amp;tr=udp%3A%2F%2Fopen.demonii.com%3A1337&amp;tr=udp%3A%2F%2Ftracker.coppersurfer.tk%3A6969&amp;tr=udp%3A%2F%2Fexodus.desync.com%3A6969","seeders":0,"leechers":1,"uploader":"TvTeam","files":7,"time":1322795804,"description":".\n &lt;a href=&quot;\nhttp://www.torrenting.com&quot; rel=&quot;nofollow&quot; target=&quot;_NEW&quot;&gt;\nhttp://www.torrenting.com&lt;/a&gt;          :     Once &amp; For all ;)\n\n\n               www . Torrenting . Com \n\n(((((((((((((= Enjoy No RAR releases =))))))))))))))))))))\n\n\n...................................NFO:....................................\n\n.                                                                                                     \n       \n     \n     \n       \n       \n     \n     \n                                         \n                                         \n                EXVID                    \n                                         \n         \n                                         \n         Filled the Archives             \n                                         \n         \n                                         \n                With:                    \n                                         \n         \n                                         \n                                    \n     E240                           \n                                    \n     SP               (C) 2009      \n                                         \n     \n     \n     \n                                                                                  \n                                                                                   \n  Monsters.Vs.Aliens.Mutant.Pumpkins.From.Outer.Space.2009.DVDRip.XviD-EXViD        \n                                                                                   \n                                                                                  \n     \n                                                                                               \nEXViD aims to iNTERNAL those releases which have been lost in the archives.\nEXViD aims to PRE non-internal releases which have poor sources and are likely skipped by others. &lt;a href=&quot;\nhttp://www.imdb.com/title/tt1482967/&quot; rel=&quot;nofollow&quot; target=&quot;_NEW&quot;&gt;\nhttp://www.imdb.com/title/tt1482967/&lt;/a&gt;\nSubtitles: EN, FR, DE, NL\nDate: 2011.11\n\nDirector: Peter Ramsey\n\nGenres: Animation | Comedy | Family | Fantasy | Sci-Fi\n\nPlot:\nSusan Murphy (a.k.a. Ginormica) and the Monsters are now working with the US government as\nspecial ops. So when an alien presence is detected in Susan's hometown of Modesto, California\n-- right before Halloween -- the team is dispatched to investigate. Everything appears normal,\nright down to the jack-o-lanterns peering out from every doorstep and windowsill. But when\nHalloween arrives, those innocent-looking carved pumpkins reveal themselves for what they\nreally are mutant aliens. The altered pumpkins then start to implement their fiendish plan to\ntake over Earth. The Monsters are there to combat the mutant gourds and try to smash their\nwicked scheme!\n\nCast:\nReese Witherspoon \t ... \tSusan Murphy / Ginormica (voice) \nSeth Rogen \t ... \tB.O.B. (voice) \nHugh Laurie \t ... \tDr. Cockroach Ph.D. (voice) \nWill Arnett \t ... \tThe Missing Link (voice) \nKiefer Sutherland \t ... \tGeneral W.R. Monger (voice) \nRainn Wilson \t ... \tWicked Jack (voice) \nJeffrey Tambor \t ... \tCarl Murphy (voice) \nJulie White \t ... \tWendy Murphy (voice) \nRich Dietl \t ... \t B.O.B. Kid / Husband / Young Man / Pumpkins (voice) (as Rich B. Dietl) \nWalt Dohrn \t ... \t Link Kid (voice) \nSusan Fitzer \t ... \t Little Girl (voice) \nAva Kelly \t ... \t Cat Girl (voice) \nAndrea Montana Knoll \t ... \t Mom (voice) (as Andrea Knoll) \nLatifa Ouaou \t ... \t Boy / Old Lady (voice) \nPeter Ramsey \t ... \t Dad / Farmer Jeb (voice)\n\nStats:\nFormat                           : AVI\nFormat/Info                      : Audio Video Interleave\nFile size                        : 233 MiB\nDuration                         : 25mn 59s\nOverall bit rate                 : 1 253 Kbps\nWriting application              : VirtualDubMod 1.5.10.2 (build 2540/release)\nWriting library                  : VirtualDubMod build 2540/release\n\nVideo\nID                               : 0\nFormat                           : MPEG-4 Visual\nFormat profile                   : Advanced Simple@L5\nFormat settings, BVOP            : Yes\nFormat settings, QPel            : No\nFormat settings, GMC             : No warppoints\nFormat settings, Matrix          : Default (H.263)\nMuxing mode                      : Packed bitstream\nCodec ID                         : XVID\nCodec ID/Hint                    : XviD\nDuration                         : 25mn 59s\nBit rate                         : 795 Kbps\nWidth                            : 624 pixels\nHeight                           : 352 pixels\nDisplay aspect ratio             : 16:9\nFrame rate                       : 25.000 fps\nColor space                      : YUV\nChroma subsampling               : 4:2:0\nBit depth                        : 8 bits\nScan type                        : Progressive\nBits/(Pixel*Frame)               : 0.145\nStream size                      : 148 MiB (63%)\nWriting library                  : XviD 62\n\nAudio\nID                               : 1\nFormat                           : AC-3\nFormat/Info                      : Audio Coding 3\nMode extension                   : CM (complete main)\nCodec ID                         : 2000\nDuration                         : 25mn 58s\nBit rate mode                    : Constant\nBit rate                         : 448 Kbps\nChannel(s)                       : 6 channels\nChannel positions                : Front: L C R, Side: L R, LFE\nSampling rate                    : 48.0 KHz\nBit depth                        : 16 bits\nStream size                      : 83.3 MiB (36%)\nAlignment                        : Split accross interleaves\nInterleave, duration             : 40 ms (1.00 video frame)\nInterleave, preload duration     : 500 ms\n\n\n\n\nRelease notes:\nenjoy!\n\nLooking for:\n75TB+ Archives\nDUTCH/FLEMiSH Archives\n                                                                                                    \nGreets: CRBS EPiSODE FiCO FLS iLS KLASSiGER LiPSYNC MADE NODLABS RUNNER SPRiNTER      \n   \n\n                                                                    ASCII DONE BY XX^NFO 2oo9","torrent":{"xt":"urn:btih:7b96117350ca6dbe8f6de8e2e1c46518986ea46e","amp;dn":"Monsters.Vs.Aliens.Mutant.Pumpkins.From.Outer.Space.2009.DVDRip.","amp;tr":["udp%3A%2F%2Ftracker.openbittorrent.com%3A80","udp%3A%2F%2Fopen.demonii.com%3A1337","udp%3A%2F%2Ftracker.coppersurfer.tk%3A6969","udp%3A%2F%2Fexodus.desync.com%3A6969"],"infoHash":"7b96117350ca6dbe8f6de8e2e1c46518986ea46e","infoHashBuffer":{"type":"Buffer","data":[123,150,17,115,80,202,109,190,143,109,232,226,225,196,101,24,152,110,164,110]},"announce":[],"urlList":[]}}